<?xml version="1.0" standalone="no"?>
<!DOCTYPE svg PUBLIC "-//W3C//DTD SVG 20010904//EN"
 "http://www.w3.org/TR/2001/REC-SVG-20010904/DTD/svg10.dtd">
<svg version="1.0" xmlns="http://www.w3.org/2000/svg"
 width="739.000000pt" height="556.000000pt" viewBox="0 0 739.000000 556.000000"
 preserveAspectRatio="xMidYMid meet">

<g transform="translate(0.000000,556.000000) scale(0.100000,-0.100000)"
fill="#000000" stroke="none">
<path d="M1437 5453 c-4 -6 31 -48 77 -95 253 -257 468 -654 640 -1188 48
-145 114 -391 140 -515 l7 -30 -38 40 c-21 23 -72 79 -113 125 -392 444 -787
741 -1030 774 -36 5 -30 1 30 -17 216 -67 461 -245 780 -566 133 -134 225
-234 290 -315 13 -18 11 -18 -20 2 -154 98 -378 196 -540 238 -99 26 -110 26
-309 21 -277 -7 -486 -44 -766 -135 -188 -62 -505 -204 -505 -227 0 -7 28 -20
63 -30 274 -76 715 -413 1282 -980 210 -210 515 -533 522 -553 2 -4 -228 -7
-511 -7 -283 0 -518 -3 -522 -7 -11 -12 21 -42 151 -141 234 -179 526 -388
958 -687 91 -63 166 -117 167 -120 0 -4 -39 -12 -87 -19 -82 -11 -467 -86
-505 -97 -41 -12 -13 -30 73 -47 51 -9 133 -29 183 -42 50 -14 134 -37 186
-51 145 -39 582 -164 610 -174 14 -5 97 -30 185 -55 288 -84 368 -112 495
-173 275 -133 502 -212 612 -212 108 0 211 24 324 75 16 8 59 27 95 43 36 16
103 51 150 77 90 52 94 53 329 90 340 53 850 109 1193 131 76 5 107 10 107 19
0 13 -90 74 -160 109 -46 23 -229 102 -257 110 -13 4 -23 11 -23 15 0 16 466
149 987 281 121 31 136 37 128 50 -17 27 -324 108 -630 165 -110 20 -202 39
-204 41 -32 30 465 326 1084 644 110 57 202 104 204 106 17 15 -129 111 -274
180 -165 79 -355 143 -545 184 -52 11 -105 22 -118 25 -31 7 -23 19 74 102
154 132 443 339 723 518 96 62 177 117 179 123 4 14 -14 19 -133 36 -545 81
-1066 71 -1520 -29 -66 -15 -131 -29 -145 -32 -22 -4 -28 2 -58 64 -93 189
-268 396 -421 497 -225 149 -443 211 -728 204 l-153 -3 -31 59 c-163 306 -515
779 -743 1000 -130 126 -584 272 -1066 345 -274 41 -859 77 -873 54z m753 -74
c245 -30 512 -82 600 -116 8 -4 19 -5 24 -4 16 3 226 -67 313 -105 17 -8 34
-14 37 -14 4 0 39 -16 79 -36 52 -26 91 -55 141 -107 58 -62 232 -261 254
-292 4 -6 22 -28 40 -50 44 -54 46 -56 68 -90 10 -17 24 -34 30 -40 10 -9 101
-140 129 -187 5 -9 42 -67 82 -130 39 -62 87 -142 106 -178 l35 -65 144 3
c169 4 301 -13 439 -57 161 -52 329 -149 422 -243 15 -15 27 -25 27 -22 0 7
103 -114 117 -138 6 -12 15 -23 20 -27 13 -8 83 -119 83 -130 0 -5 6 -16 13
-23 6 -7 25 -41 41 -75 18 -39 36 -63 46 -63 8 0 47 8 85 19 240 65 492 96
855 105 211 6 196 -6 -30 -24 -270 -21 -661 -90 -850 -149 -36 -12 -72 -21
-81 -21 -10 0 -27 28 -48 81 -150 367 -445 606 -851 693 -124 26 -321 37 -459
26 -69 -6 -125 -9 -125 -8 -1 2 -27 55 -58 118 -88 175 -114 217 -227 370 -99
133 -100 134 -206 254 -199 226 -298 306 -513 409 -87 42 -103 49 -242 105
-176 71 -540 174 -788 222 l-97 19 95 -5 c52 -3 165 -14 250 -25z m-635 -1728
c207 -27 204 -26 195 -88 -11 -68 -45 -152 -80 -200 l-31 -42 -82 56 c-93 62
-178 107 -299 157 -109 45 -326 116 -354 116 -13 0 -26 5 -30 12 -4 6 -3 9 2
6 5 -3 27 -2 49 3 70 15 457 2 630 -20z m2562 -713 c-9 -333 -66 -597 -172
-808 -19 -39 -33 -70 -30 -70 14 0 80 120 114 210 70 177 103 355 121 630 5
91 10 174 10 185 l1 20 15 -20 c49 -61 179 -381 199 -487 7 -36 4 -41 -56
-107 -65 -71 -129 -174 -117 -187 4 -3 35 15 70 41 34 25 75 53 90 61 31 16
53 10 44 -11 -10 -28 -9 -379 2 -383 13 -4 107 75 259 216 l112 103 26 -40
c14 -23 29 -41 33 -41 24 0 142 100 142 120 0 5 -12 24 -28 42 -54 65 -54 63
-33 89 10 13 33 68 51 122 20 58 37 93 41 85 4 -7 15 -42 25 -78 14 -50 18
-104 18 -240 1 -191 -15 -316 -63 -515 -38 -157 -37 -158 91 -40 54 50 94 80
96 72 1 -7 -11 -78 -29 -158 -50 -229 -51 -221 19 -174 26 18 38 22 40 12 1
-7 -29 -141 -67 -297 -38 -157 -77 -316 -85 -354 -25 -106 -78 -196 -159 -271
-126 -118 -405 -291 -623 -389 -132 -59 -179 -73 -280 -82 -85 -7 -214 24
-361 86 -54 23 -116 49 -138 58 -70 29 -340 168 -399 206 -50 32 -60 45 -92
113 -20 43 -43 82 -50 86 -8 5 -12 13 -8 18 5 9 -12 62 -46 144 -5 11 -14 38
-20 60 -6 22 -15 49 -20 60 -18 45 -118 433 -125 490 -2 11 -5 36 -9 56 -5 35
-4 36 21 31 30 -6 30 -21 -6 222 -12 76 -20 141 -17 143 2 2 16 -7 32 -20 40
-33 154 -103 182 -112 28 -8 29 7 2 138 -35 171 -61 358 -66 472 l-6 110 64
102 c34 56 79 119 98 140 l35 38 8 -125 8 -125 -47 -50 c-52 -56 -104 -124
-104 -136 0 -17 69 -85 105 -105 l35 -19 24 30 24 30 7 -40 c4 -22 20 -88 36
-147 16 -59 29 -112 29 -117 0 -5 -14 -14 -30 -20 -44 -15 -130 -106 -167
-176 -45 -85 -67 -206 -60 -321 13 -188 68 -364 122 -384 28 -11 325 -14 363
-4 59 16 6 24 -160 24 -101 0 -188 4 -195 8 -39 25 -91 209 -99 352 -13 219
66 399 207 471 l39 19 27 -55 c15 -30 32 -55 39 -55 7 0 17 29 24 66 13 66 13
66 42 60 88 -17 174 -96 225 -203 32 -70 53 -92 53 -57 0 26 -56 136 -90 177
-41 49 -105 92 -162 109 l-45 13 27 105 c24 95 76 264 87 282 11 20 107 -60
172 -142 17 -22 20 -23 26 -8 11 27 -53 162 -121 255 -14 20 -15 27 -3 54 14
34 203 231 337 350 83 74 244 189 264 189 8 0 9 -60 5 -202z m2413 -502 c102
-25 264 -79 376 -126 112 -47 290 -147 280 -157 -3 -3 -16 1 -29 10 -27 18
-334 122 -392 133 -22 4 -46 8 -53 10 -7 1 -47 9 -90 18 -42 8 -126 20 -187
27 -60 6 -116 15 -122 18 -15 8 112 80 142 80 11 0 45 -6 75 -13z m-949 -672
c33 -30 43 -91 42 -254 0 -164 -17 -272 -55 -361 -35 -83 -291 -314 -376 -339
-52 -16 -137 -10 -135 10 4 38 43 174 53 184 6 6 41 11 78 10 l67 0 52 79 52
79 -24 142 -24 141 25 42 c13 23 28 44 33 48 14 8 51 -44 51 -71 0 -15 6 -24
15 -24 27 0 11 67 -27 107 l-20 22 28 25 c16 14 41 30 56 35 46 16 58 -6 58
-106 0 -63 3 -84 13 -81 17 6 21 155 4 188 -24 47 -107 33 -163 -27 -13 -14
-40 -50 -59 -79 -42 -63 -44 -100 -15 -253 11 -57 18 -107 14 -110 -3 -3 -23
-6 -45 -7 -25 0 -49 -8 -67 -22 -31 -25 -72 -45 -80 -38 -2 3 23 119 57 259
33 139 61 256 61 259 0 9 152 118 203 146 47 26 97 24 128 -4z m-3105 -19 c36
-18 56 -36 72 -66 12 -22 22 -47 22 -55 0 -7 11 -39 25 -70 14 -31 25 -58 25
-61 0 -2 -21 20 -47 49 -127 144 -216 144 -239 -1 -5 -34 -4 -41 10 -41 18 0
19 3 36 68 9 36 14 42 38 42 15 0 40 -10 56 -23 l28 -23 -24 -36 c-29 -43 -53
-120 -44 -143 10 -27 30 -11 37 27 7 46 43 113 60 113 7 0 31 -26 52 -58 l38
-58 -58 -87 c-101 -152 -102 -213 -3 -260 20 -10 43 -33 55 -54 20 -37 21 -38
65 -32 73 9 93 -4 113 -75 23 -82 22 -88 -18 -101 -47 -15 -89 -5 -155 37
-102 65 -278 267 -302 346 -15 47 -18 437 -5 498 19 89 72 110 163 64z m119
-94 c3 -5 2 -12 -3 -15 -5 -3 -9 1 -9 9 0 17 3 19 12 6z m2694 -523 c0 -7 -10
-28 -22 -47 -22 -32 -26 -34 -90 -36 -78 -3 -87 14 -18 30 24 6 47 19 53 29
16 29 79 48 77 24z m-2355 -394 c3 -8 2 -12 -4 -9 -6 3 -10 10 -10 16 0 14 7
11 14 -7z"/>
<path d="M4534 2020 c-101 -15 -219 -90 -262 -168 -31 -56 -11 -62 28 -8 63
87 152 139 262 152 137 16 255 -71 294 -218 27 -104 10 -355 -35 -498 -31 -96
-29 -95 -113 -92 -93 4 -292 -14 -318 -28 -32 -17 -14 -29 27 -19 21 6 116 13
211 16 l173 6 20 38 c62 123 99 448 65 577 -34 128 -125 221 -235 242 -30 5
-56 9 -60 9 -3 -1 -29 -5 -57 -9z"/>
<path d="M3569 1581 c-25 -26 -29 -37 -29 -86 0 -49 4 -60 30 -86 30 -31 55
-32 87 -7 42 34 40 154 -4 188 -34 27 -49 25 -84 -9z"/>
<path d="M4210 1599 c-35 -12 -52 -43 -52 -96 0 -52 22 -90 57 -99 35 -9 52 0
75 38 25 41 25 73 2 117 -20 39 -46 52 -82 40z"/>
<path d="M3828 1085 c-21 -35 -38 -68 -38 -73 0 -4 15 -23 34 -41 33 -32 34
-32 65 -17 35 19 37 23 15 47 -8 9 -17 40 -19 70 -1 30 -3 60 -4 67 -2 24 -17
10 -53 -53z"/>
<path d="M4405 1090 c-27 -10 31 -17 204 -25 74 -3 160 -8 190 -12 86 -9 56 5
-44 21 -108 17 -322 27 -350 16z"/>
<path d="M3195 1076 c-100 -16 -195 -43 -195 -56 0 -6 10 -8 23 -5 12 2 63 14
112 25 50 12 134 24 188 27 54 3 100 10 103 15 8 12 -138 8 -231 -6z"/>
<path d="M4165 894 c-79 -38 -135 -58 -198 -71 -83 -15 -96 -15 -200 0 -62 9
-119 17 -127 17 -33 -1 16 -18 114 -40 117 -26 184 -23 305 15 73 23 267 135
231 134 -8 0 -64 -25 -125 -55z"/>
<path d="M3835 662 c-45 -11 -19 -19 64 -20 46 -1 71 2 65 8 -13 13 -92 20
-129 12z"/>
</g>
</svg>
