<?xml version="1.0" standalone="no"?>
<!DOCTYPE svg PUBLIC "-//W3C//DTD SVG 20010904//EN"
 "http://www.w3.org/TR/2001/REC-SVG-20010904/DTD/svg10.dtd">
<svg version="1.0" xmlns="http://www.w3.org/2000/svg"
 width="117.000000pt" height="110.000000pt" viewBox="0 0 117.000000 110.000000"
 preserveAspectRatio="xMidYMid meet">

<g transform="translate(0.000000,110.000000) scale(0.100000,-0.100000)"
fill="#000000" stroke="none">
<path d="M446 1093 c-3 -4 6 -12 21 -19 26 -11 22 -12 -41 -13 -106 -1 -193
-20 -224 -47 l-27 -24 50 6 50 5 -56 -24 c-78 -33 -122 -62 -158 -103 -38 -42
-44 -80 -8 -47 12 11 33 26 47 33 21 11 19 7 -12 -28 -69 -77 -103 -182 -83
-259 l7 -28 13 30 13 30 1 -45 c2 -96 32 -144 114 -186 28 -15 29 -15 23 1 -5
14 -1 14 28 -4 18 -12 40 -21 49 -21 21 0 27 -22 27 -103 l0 -72 73 -67 c49
-47 80 -68 97 -68 74 0 289 77 321 116 8 9 15 7 34 -12 17 -17 35 -24 63 -24
37 0 40 -2 46 -34 7 -39 20 -51 59 -61 15 -4 27 -11 27 -16 0 -5 38 -9 84 -9
81 0 84 1 79 21 -3 12 -21 30 -39 41 -23 14 -34 27 -34 44 0 13 -13 38 -29 56
-29 33 -29 33 -10 57 10 13 19 33 20 45 0 20 1 20 8 1 8 -19 8 -19 19 2 15 27
15 93 2 128 -9 23 -6 32 14 56 31 37 40 81 34 169 -16 218 -248 427 -465 418
-45 -2 -66 1 -80 13 -45 40 -135 64 -157 42z m122 -508 c-3 -3 -9 2 -12 12 -6
14 -5 15 5 6 7 -7 10 -15 7 -18z m-46 -45 c22 -16 46 -30 53 -30 7 0 10 -12 8
-32 l-4 -33 16 28 c18 32 45 35 106 10 28 -11 45 -26 55 -47 10 -24 13 -26 14
-11 0 45 -50 87 -122 100 -40 8 -86 45 -55 45 9 0 32 -9 51 -21 23 -14 45 -19
63 -15 38 7 105 -30 135 -74 23 -34 23 -34 5 -72 -10 -21 -21 -65 -24 -98 -7
-71 -43 -120 -119 -162 -49 -26 -212 -78 -246 -78 -21 0 -144 93 -158 120 -6
10 -10 48 -10 85 0 36 -7 81 -14 100 -14 33 -14 35 5 35 20 0 20 0 0 29 -24
33 -28 71 -7 71 9 0 12 -9 9 -27 l-4 -28 16 28 c19 32 52 33 47 2 -13 -73 -12
-91 3 -110 9 -11 13 -14 9 -6 -5 10 -3 12 6 6 7 -4 16 -2 22 6 8 11 9 10 4 -4
-3 -11 -2 -16 4 -12 15 9 12 86 -4 118 -14 26 -14 27 11 27 26 0 26 0 7 22
-10 13 0 6 23 -14 41 -36 101 -57 123 -43 7 4 -6 25 -34 55 -65 69 -63 79 6
30z m-209 -31 c-28 -12 -30 -10 -28 14 1 12 3 24 4 26 0 2 10 -4 22 -15 19
-17 19 -19 2 -25z m53 -85 c-4 -12 -10 -14 -17 -7 -5 5 -7 17 -3 27 4 12 10
14 17 7 5 -5 7 -17 3 -27z m610 -19 c25 -39 11 -91 -41 -142 -42 -43 -75 -55
-75 -29 0 7 11 21 25 30 13 9 32 30 41 47 18 36 11 84 -11 75 -20 -7 -19 3 2
26 22 25 39 23 59 -7z m-46 -61 c0 -13 -40 -36 -49 -28 -2 2 4 15 13 29 17 26
36 26 36 -1z m-40 -59 c-7 -9 -15 -13 -17 -11 -7 7 7 26 19 26 6 0 6 -6 -2
-15z"/>
<path d="M640 461 c-5 -11 -10 -34 -10 -51 0 -44 17 -70 45 -70 28 0 45 26 45
70 0 44 -17 70 -45 70 -14 0 -29 -8 -35 -19z m30 -21 c0 -22 -16 -35 -25 -20
-9 14 4 52 16 45 5 -4 9 -15 9 -25z m34 -74 c-8 -20 -50 -21 -58 -1 -4 12 -2
13 15 2 18 -10 23 -9 32 5 14 21 20 17 11 -6z"/>
<path d="M352 331 c-10 -6 -6 -10 15 -14 15 -3 33 -1 38 5 7 8 6 9 -2 4 -6 -3
-14 -2 -18 4 -7 12 -16 12 -33 1z"/>
<path d="M708 334 c-3 -3 -28 -9 -55 -14 l-48 -9 48 3 c27 2 54 9 60 15 6 6 9
11 6 11 -3 0 -8 -3 -11 -6z"/>
<path d="M370 297 c0 -7 5 -19 11 -27 9 -13 10 -13 6 2 -3 9 -1 18 6 21 6 2 4
6 -6 10 -10 4 -17 2 -17 -6z"/>
<path d="M417 188 c6 -10 54 -10 70 0 7 4 -8 7 -32 7 -23 0 -41 -3 -38 -7z"/>
</g>
</svg>
